<?xml version="1.0" encoding="UTF-8" standalone="no"?>
<!DOCTYPE svg PUBLIC "-//W3C//DTD SVG 1.1//EN" "http://www.w3.org/Graphics/SVG/1.1/DTD/svg11.dtd">
<svg width="100%" height="100%" viewBox="0 0 1540 1540" version="1.1" xmlns="http://www.w3.org/2000/svg" xmlns:xlink="http://www.w3.org/1999/xlink" xml:space="preserve" xmlns:serif="http://www.serif.com/" style="fill-rule:evenodd;clip-rule:evenodd;stroke-linecap:round;stroke-linejoin:round;stroke-miterlimit:1.5;">
    <g transform="matrix(1,0,0,1,-2739.06,-3531.99)">
        <g transform="matrix(0.850837,5.55112e-17,0,0.844611,571.103,492.142)">
            <ellipse cx="3452.83" cy="4510.58" rx="902.307" ry="908.958" style="fill:rgb(185,177,184);fill-opacity:0.7;stroke:black;stroke-opacity:0;stroke-width:5.01px;"/>
        </g>
        <g transform="matrix(0.663499,0.295638,-0.136991,0.307448,3377.74,1943.38)">
            <path d="M1762.88,6565.71C1762.88,6359.28 1685.33,6191.93 1589.67,6191.93C1589.67,6191.93 1589.67,6191.93 1589.67,6191.93L1589.67,7889.3C1589.67,7889.3 1589.67,7889.3 1589.67,7889.3C1685.33,7889.3 1762.88,7721.95 1762.88,7515.52C1762.88,7233.35 1762.88,6847.89 1762.88,6565.71Z" style="fill:rgb(86,86,86);stroke:white;stroke-width:1.77px;"/>
        </g>
        <g transform="matrix(-0.655106,0.313798,-0.283981,-0.592859,6239.97,8012.38)">
            <path d="M1762.88,6383.32C1762.88,6332.56 1744.63,6283.88 1712.15,6247.99C1679.66,6212.1 1635.61,6191.93 1589.67,6191.93L1589.67,6191.93L1589.67,7889.3C1589.67,7889.3 1589.67,7889.3 1589.67,7889.3C1635.61,7889.3 1679.66,7869.14 1712.15,7833.24C1744.63,7797.35 1762.88,7748.67 1762.88,7697.91C1762.88,7371.29 1762.88,6709.94 1762.88,6383.32Z" style="fill:rgb(178,42,42);stroke:white;stroke-width:1.44px;"/>
        </g>
        <g transform="matrix(-0.655106,0.313798,-0.283981,-0.592859,6878.46,7972.47)">
            <path d="M1762.88,6383.32C1762.88,6332.56 1744.63,6283.88 1712.15,6247.99C1679.66,6212.1 1635.61,6191.93 1589.67,6191.93L1589.67,6191.93L1589.67,7889.3L1589.67,7889.3C1635.61,7889.3 1679.66,7869.14 1712.15,7833.24C1744.63,7797.35 1762.88,7748.67 1762.88,7697.91C1762.88,7371.29 1762.88,6709.94 1762.88,6383.32Z" style="fill:rgb(178,42,42);stroke:white;stroke-width:1.44px;"/>
        </g>
    </g>
</svg>
